<svg width="20" height="20" viewBox="0 0 20 20" fill="none" xmlns="http://www.w3.org/2000/svg">
<path d="M13.4917 1.66667H6.51671C3.48338 1.66667 1.67505 3.475 1.67505 6.50833V13.4833C1.67505 16.5167 3.48338 18.325 6.51671 18.325H13.4917C16.525 18.325 18.3334 16.5167 18.3334 13.4833V6.50833C18.3334 3.475 16.525 1.66667 13.4917 1.66667Z" fill="#7C8DB5" fill-opacity="0.72"/>
<path d="M13.0166 5.91663L11.1083 5.28334C10.625 5.11667 10.1333 5.1833 9.75833 5.44997C9.38333 5.71663 9.17499 6.16666 9.17499 6.67499V7.18331V10.6666C8.84165 10.4833 8.46663 10.375 8.0583 10.375C6.77497 10.375 5.72498 11.425 5.72498 12.7083C5.72498 13.9917 6.77497 15.0416 8.0583 15.0416C9.34163 15.0416 10.3916 13.9917 10.3916 12.7083V8.91666C10.4 8.925 10.4167 8.92496 10.425 8.93329L12.3333 9.56664C12.5083 9.62497 12.6916 9.65834 12.8666 9.65834C13.1666 9.65834 13.45 9.57501 13.6833 9.40001C14.0583 9.13334 14.2666 8.68332 14.2666 8.17498V7.66666C14.2666 6.90833 13.7333 6.1583 13.0166 5.91663ZM8.0583 13.825C7.44163 13.825 6.95 13.325 6.95 12.7167C6.95 12.1 7.44997 11.6 8.0583 11.6C8.67497 11.6 9.17499 12.1 9.17499 12.7167C9.17499 13.325 8.67497 13.825 8.0583 13.825Z" fill="white"/>
</svg>
