<svg width="104" height="104" viewBox="0 0 104 104" fill="none" xmlns="http://www.w3.org/2000/svg">
<g id="Comment">
<g id="button3">
<g id="button1" filter="url(#filter0_d_91_494)">
<rect x="30" y="15" width="44" height="44" rx="14" fill="white"/>
</g>
</g>
<g id="Chat">
<path id="Path_34194" opacity="0.4" d="M52.0036 29C47.5861 29 44.0039 32.5798 44 36.9983C43.9975 38.2866 44.3075 39.5564 44.9035 40.6985C44.9604 40.8053 45.0102 40.912 45.0672 41.0116C45.1948 41.2576 45.2203 41.5439 45.1383 41.8086C44.91 42.4176 44.72 43.0403 44.5692 43.673C44.5692 43.9861 44.6616 44.1711 44.996 44.1711C45.6037 44.0347 46.2024 43.8613 46.7888 43.6516C47.0436 43.5851 47.3131 43.6026 47.5571 43.7014C47.7777 43.8153 47.9769 43.979 48.1974 44.0786H48.2686C50.7489 45.3844 53.7315 45.2973 56.1313 43.8489C58.5312 42.4005 59.9987 39.8018 60 36.9983C59.9961 32.5826 56.4182 29.0039 52.0036 29Z" fill="#7C8DB5" fill-opacity="0.72"/>
<path id="Path_34195" d="M48.2087 38.2278C47.6555 38.2278 47.207 37.7793 47.207 37.2261C47.207 36.6728 47.6555 36.2243 48.2087 36.2243C48.762 36.2243 49.2104 36.6728 49.2104 37.2261C49.2104 37.7793 48.762 38.2278 48.2087 38.2278Z" fill="#7C8DB5" fill-opacity="0.72"/>
<path id="Path_34196" d="M51.8261 38.2278C51.5598 38.2297 51.3039 38.1247 51.1157 37.9365C50.9274 37.7482 50.8225 37.4923 50.8243 37.2261C50.8243 36.8209 51.0684 36.4556 51.4427 36.3006C51.817 36.1455 52.2479 36.2312 52.5344 36.5177C52.8209 36.8042 52.9066 37.2351 52.7516 37.6094C52.5965 37.9837 52.2312 38.2278 51.8261 38.2278Z" fill="#7C8DB5" fill-opacity="0.72"/>
<path id="Path_34197" d="M55.4365 38.2278C54.8833 38.2278 54.4348 37.7793 54.4348 37.2261C54.4348 36.6728 54.8833 36.2243 55.4365 36.2243C55.9898 36.2243 56.4383 36.6728 56.4383 37.2261C56.4383 37.7793 55.9898 38.2278 55.4365 38.2278Z" fill="#7C8DB5" fill-opacity="0.72"/>
</g>
</g>
<defs>
<filter id="filter0_d_91_494" x="0" y="0" width="104" height="104" filterUnits="userSpaceOnUse" color-interpolation-filters="sRGB">
<feFlood flood-opacity="0" result="BackgroundImageFix"/>
<feColorMatrix in="SourceAlpha" type="matrix" values="0 0 0 0 0 0 0 0 0 0 0 0 0 0 0 0 0 0 127 0" result="hardAlpha"/>
<feOffset dy="15"/>
<feGaussianBlur stdDeviation="15"/>
<feColorMatrix type="matrix" values="0 0 0 0 0 0 0 0 0 0 0 0 0 0 0 0 0 0 0.06 0"/>
<feBlend mode="normal" in2="BackgroundImageFix" result="effect1_dropShadow_91_494"/>
<feBlend mode="normal" in="SourceGraphic" in2="effect1_dropShadow_91_494" result="shape"/>
</filter>
</defs>
</svg>
