<svg width="18" height="18" viewBox="0 0 18 18" fill="none" xmlns="http://www.w3.org/2000/svg">
<g id="Discount">
<path id="Discount_2" fill-rule="evenodd" clip-rule="evenodd" d="M15.9993 6.62167L16.5995 7.22167C17.0747 7.68834 17.3331 8.32167 17.3331 8.98834C17.3414 9.65501 17.083 10.2892 16.6162 10.7633C16.6106 10.7695 16.6051 10.7748 16.5995 10.7802C16.5967 10.7829 16.5939 10.7856 16.5912 10.7883L15.9993 11.38C15.7659 11.6133 15.6325 11.93 15.6325 12.2642V13.1217C15.6325 14.505 14.5071 15.6308 13.1232 15.6308H12.2646C11.9311 15.6308 11.6144 15.7633 11.3809 15.9967L10.7807 16.5967C10.2889 17.0892 9.64698 17.33 9.00508 17.33C8.36318 17.33 7.72128 17.0892 7.22943 16.6058L6.62088 15.9967C6.38746 15.7633 6.07068 15.6308 5.73723 15.6308H4.87858C3.49475 15.6308 2.36934 14.505 2.36934 13.1217V12.2642C2.36934 11.93 2.23596 11.6133 2.00254 11.3717L1.40232 10.78C0.426969 9.80584 0.418633 8.21334 1.39399 7.23084L2.00254 6.62167C2.23596 6.38834 2.36934 6.07167 2.36934 5.73001V4.88001C2.36934 3.49667 3.49475 2.37251 4.87858 2.37251H5.73723C6.07068 2.37251 6.38746 2.23834 6.62088 2.00501L7.2211 1.40501C8.19645 0.422506 9.78869 0.422506 10.7724 1.39751L11.3809 2.00501C11.6144 2.23834 11.9311 2.37251 12.2646 2.37251H13.1232C14.5071 2.37251 15.6325 3.49667 15.6325 4.88001V5.73917C15.6325 6.07167 15.7659 6.38834 15.9993 6.62167ZM6.8543 11.8717C7.05437 11.8717 7.23777 11.7967 7.37115 11.655L11.656 7.37251C11.9395 7.08917 11.9395 6.62167 11.656 6.33834C11.3726 6.05584 10.9141 6.05584 10.6307 6.33834L6.34578 10.6217C6.06235 10.905 6.06235 11.3717 6.34578 11.655C6.47916 11.7967 6.66256 11.8717 6.8543 11.8717ZM10.4139 11.1383C10.4139 11.5467 10.739 11.8717 11.1475 11.8717C11.5477 11.8717 11.8728 11.5467 11.8728 11.1383C11.8728 10.7392 11.5477 10.4133 11.1475 10.4133C10.739 10.4133 10.4139 10.7392 10.4139 11.1383ZM6.86264 6.13001C7.26278 6.13001 7.5879 6.45501 7.5879 6.85501C7.5879 7.26417 7.26278 7.58834 6.86264 7.58834C6.46249 7.58834 6.12904 7.26417 6.12904 6.85501C6.12904 6.45501 6.46249 6.13001 6.86264 6.13001Z" fill="#7C8DB5" fill-opacity="0.72"/>
</g>
</svg>
