<svg width="104" height="63" viewBox="0 0 104 63" fill="none" xmlns="http://www.w3.org/2000/svg">
<g id="Favourite">
<g id="BG">
<g id="button1" filter="url(#filter0_d_91_461)">
<rect x="30" y="15" width="44" height="44" rx="14" fill="white"/>
</g>
</g>
<g id="Heart">
<path id="Path_34179" opacity="0.4" d="M51.8208 44.8631C49.9944 43.6756 48.2965 42.2754 46.7583 40.6881C45.6724 39.5547 44.8431 38.1709 44.3338 36.6423C43.4236 33.6612 44.4831 30.2543 47.4409 29.2429C49.0021 28.7268 50.7001 29.0436 52.0057 30.0946C53.3117 29.0448 55.0091 28.728 56.5704 29.2429C59.5283 30.2543 60.5948 33.6612 59.6847 36.6423C59.1795 38.1695 58.3551 39.5532 57.2743 40.6881C55.7347 42.2737 54.0371 43.6737 52.2119 44.8631L52.0128 45L51.8208 44.8631Z" fill="url(#paint0_linear_91_461)"/>
<path id="Path_34178" d="M52.0087 45L51.8208 44.8631C49.9921 43.6757 48.2919 42.2755 46.7512 40.6881C45.6602 39.5563 44.8259 38.1723 44.3124 36.6423C43.4094 33.6612 44.4688 30.2543 47.4267 29.2428C48.9879 28.7267 50.7082 29.0438 52.0087 30.1036V45Z" fill="url(#paint1_linear_91_461)"/>
<path id="Path_34180" d="M56.9844 34.8941C56.8237 34.8832 56.674 34.7986 56.5705 34.6603C56.4669 34.5219 56.4186 34.3418 56.4367 34.1622C56.4541 33.5708 56.1344 33.0324 55.6414 32.823C55.3288 32.7331 55.1394 32.3767 55.2176 32.0252C55.2918 31.6794 55.5995 31.4644 55.9087 31.5422C55.9477 31.549 55.9853 31.5639 56.0195 31.5861C57.0081 31.9866 57.6481 33.0643 57.5972 34.2427C57.5956 34.4213 57.5294 34.5916 57.4139 34.7144C57.2983 34.8372 57.1433 34.902 56.9844 34.8941Z" fill="url(#paint2_linear_91_461)"/>
</g>
</g>
<defs>
<filter id="filter0_d_91_461" x="0" y="0" width="104" height="104" filterUnits="userSpaceOnUse" color-interpolation-filters="sRGB">
<feFlood flood-opacity="0" result="BackgroundImageFix"/>
<feColorMatrix in="SourceAlpha" type="matrix" values="0 0 0 0 0 0 0 0 0 0 0 0 0 0 0 0 0 0 127 0" result="hardAlpha"/>
<feOffset dy="15"/>
<feGaussianBlur stdDeviation="15"/>
<feColorMatrix type="matrix" values="0 0 0 0 0 0 0 0 0 0 0 0 0 0 0 0 0 0 0.06 0"/>
<feBlend mode="normal" in2="BackgroundImageFix" result="effect1_dropShadow_91_461"/>
<feBlend mode="normal" in="SourceGraphic" in2="effect1_dropShadow_91_461" result="shape"/>
</filter>
<linearGradient id="paint0_linear_91_461" x1="52.0087" y1="21" x2="36.0087" y2="36.9825" gradientUnits="userSpaceOnUse">
<stop stop-color="#FF7E3A"/>
<stop offset="1" stop-color="#FF9A45"/>
</linearGradient>
<linearGradient id="paint1_linear_91_461" x1="48.0044" y1="21.0005" x2="35.1961" y2="27.4117" gradientUnits="userSpaceOnUse">
<stop stop-color="#FF7E3A"/>
<stop offset="1" stop-color="#FF9A45"/>
</linearGradient>
<linearGradient id="paint2_linear_91_461" x1="56.4" y1="29.8421" x2="53.2163" y2="32.1105" gradientUnits="userSpaceOnUse">
<stop stop-color="#FF7E3A"/>
<stop offset="1" stop-color="#FF9A45"/>
</linearGradient>
</defs>
</svg>
