<svg width="18" height="17" viewBox="0 0 18 17" fill="none" xmlns="http://www.w3.org/2000/svg">
<g id="Heart">
<path id="Path_34179" opacity="0.4" d="M8.81329 16.1979C6.91076 15.0227 5.14218 13.6371 3.53989 12.0663C2.40874 10.9448 1.54487 9.57539 1.01429 8.06272C0.066265 5.11269 1.16983 1.74123 4.25091 0.74033C5.87717 0.229609 7.64586 0.543129 9.00586 1.5832C10.3664 0.544292 12.1345 0.230874 13.7608 0.74033C16.8419 1.74123 17.9529 5.11269 17.0048 8.06272C16.4786 9.57396 15.6198 10.9433 14.494 12.0663C12.8903 13.6354 11.1219 15.0209 9.22065 16.1979L9.01327 16.3333L8.81329 16.1979Z" fill="#B9C0DE"/>
<path id="Path_34178" d="M9.00905 16.3333L8.81328 16.1979C6.9084 15.0228 5.13735 13.6372 3.53247 12.0663C2.39596 10.9464 1.52695 9.57682 0.992059 8.06272C0.0514383 5.11269 1.155 1.74123 4.23609 0.740329C5.86235 0.229607 7.65436 0.543367 9.00905 1.59214V16.3333Z" fill="#7C8DB5" fill-opacity="0.72"/>
<path id="Path_34180" d="M14.192 6.33269C14.0246 6.32191 13.8687 6.23825 13.7608 6.1013C13.6529 5.96436 13.6026 5.78617 13.6215 5.60847C13.6396 5.02317 13.3066 4.49042 12.793 4.28314C12.4674 4.19424 12.2701 3.84156 12.3516 3.49374C12.4289 3.15152 12.7494 2.93873 13.0715 3.01575C13.1121 3.0225 13.1513 3.03723 13.1869 3.05921C14.2167 3.45548 14.8834 4.52201 14.8303 5.68813C14.8286 5.86488 14.7597 6.03332 14.6394 6.15484C14.519 6.27637 14.3575 6.34055 14.192 6.33269Z" fill="white"/>
</g>
</svg>
