<svg width="18" height="18" viewBox="0 0 18 18" fill="none" xmlns="http://www.w3.org/2000/svg">
<g id="Logout">
<path id="Logout_2" fill-rule="evenodd" clip-rule="evenodd" d="M7.24608 8.35832C6.8815 8.35832 6.59323 8.64166 6.59323 8.99999C6.59323 9.34999 6.8815 9.64166 7.24608 9.64166H12.3333V13.625C12.3333 15.6667 10.646 17.3333 8.56028 17.3333H4.43116C2.35388 17.3333 0.666626 15.675 0.666626 13.6333V4.37499C0.666626 2.32499 2.36236 0.666656 4.43964 0.666656H8.57724C10.646 0.666656 12.3333 2.32499 12.3333 4.36666V8.35832H7.24608ZM15.3585 6.11682L17.7918 8.54182C17.9168 8.66682 17.9835 8.82516 17.9835 9.00016C17.9835 9.16682 17.9168 9.33349 17.7918 9.45016L15.3585 11.8752C15.2335 12.0002 15.0668 12.0668 14.9085 12.0668C14.7418 12.0668 14.5751 12.0002 14.4501 11.8752C14.2001 11.6252 14.2001 11.2168 14.4501 10.9668L15.7835 9.64182H12.3335V8.35849H15.7835L14.4501 7.03349C14.2001 6.78349 14.2001 6.37516 14.4501 6.12516C14.7001 5.86682 15.1085 5.86682 15.3585 6.11682Z" fill="#7C8DB5" fill-opacity="0.72"/>
</g>
</svg>
