<svg width="10" height="12" viewBox="0 0 10 12" fill="none" xmlns="http://www.w3.org/2000/svg">
<path d="M9.65909 7.07169C9.61648 7.13001 9.41761 7.37789 9.26136 7.53828L9.17614 7.62576C7.98295 8.95261 5.0142 10.9502 3.50852 11.5917C3.50852 11.6063 2.61364 11.9854 2.1875 12H2.13068C1.47727 12 0.866477 11.6209 0.553977 11.0085C0.383523 10.6731 0.227273 9.69623 0.213068 9.68165C0.0852273 8.8068 0 7.46683 0 5.99271C0 4.44714 0.0852273 3.04739 0.241477 2.18712C0.241477 2.17254 0.397727 1.38518 0.497159 1.12272C0.653409 0.743621 0.9375 0.422843 1.29261 0.218712C1.5767 0.072904 1.875 0 2.1875 0C2.5142 0.0145808 3.125 0.234751 3.36648 0.335358C4.95739 0.976914 7.99716 3.07655 9.16193 4.35966C9.3608 4.56379 9.57386 4.81167 9.63068 4.86999C9.87216 5.19077 10 5.58445 10 6.00875C10 6.38639 9.88636 6.76549 9.65909 7.07169Z" fill="#7C8DB5" fill-opacity="0.72"/>
</svg>
