<svg width="18" height="18" viewBox="0 0 18 18" fill="none" xmlns="http://www.w3.org/2000/svg">
<g id="Search">
<path id="Search_2" fill-rule="evenodd" clip-rule="evenodd" d="M0.666626 7.8916C0.666626 3.90138 3.86691 0.666664 7.81466 0.666664C9.71044 0.666664 11.5286 1.42786 12.8691 2.7828C14.2096 4.13774 14.9627 5.97543 14.9627 7.8916C14.9627 11.8818 11.7624 15.1165 7.81466 15.1165C3.86691 15.1165 0.666626 11.8818 0.666626 7.8916ZM14.8444 13.7119L16.9733 15.4303H17.0103C17.441 15.8657 17.441 16.5715 17.0103 17.0068C16.5796 17.4422 15.8813 17.4422 15.4506 17.0068L13.6839 14.9821C13.5169 14.8138 13.423 14.5853 13.423 14.347C13.423 14.1086 13.5169 13.8801 13.6839 13.7119C14.006 13.392 14.5223 13.392 14.8444 13.7119Z" fill="#7C8DB5" fill-opacity="0.72"/>
</g>
</svg>
