<svg width="16" height="18" viewBox="0 0 16 18" fill="none" xmlns="http://www.w3.org/2000/svg">
<g id="Setting">
<path id="Setting_2" fill-rule="evenodd" clip-rule="evenodd" d="M15.0019 10.3167C15.2999 10.4751 15.5299 10.7251 15.6917 10.9751C16.0068 11.4917 15.9812 12.1251 15.6747 12.6834L15.0785 13.6834C14.7634 14.2167 14.1758 14.5501 13.5711 14.5501C13.2731 14.5501 12.9409 14.4667 12.6684 14.3001C12.447 14.1584 12.1915 14.1084 11.919 14.1084C11.0759 14.1084 10.369 14.8001 10.3435 15.6251C10.3435 16.5834 9.55995 17.3334 8.58057 17.3334H7.42236C6.43446 17.3334 5.65096 16.5834 5.65096 15.6251C5.63393 14.8001 4.92708 14.1084 4.08396 14.1084C3.80292 14.1084 3.54743 14.1584 3.33453 14.3001C3.062 14.4667 2.72135 14.5501 2.4318 14.5501C1.81862 14.5501 1.231 14.2167 0.915894 13.6834L0.328268 12.6834C0.0131649 12.1417 -0.00386769 11.4917 0.311236 10.9751C0.447497 10.7251 0.702986 10.4751 0.992541 10.3167C1.231 10.2001 1.38429 10.0084 1.52907 9.78341C1.95488 9.06675 1.69939 8.12508 0.975508 7.70008C0.132393 7.22508 -0.140129 6.16675 0.345301 5.34175L0.915894 4.35841C1.40984 3.53341 2.46586 3.24175 3.31749 3.72508C4.05841 4.12508 5.02076 3.85841 5.45509 3.15008C5.59135 2.91675 5.668 2.66675 5.65096 2.41675C5.63393 2.09175 5.72761 1.78341 5.88942 1.53341C6.20452 1.01675 6.77512 0.683415 7.39681 0.666748H8.59761C9.22781 0.666748 9.79841 1.01675 10.1135 1.53341C10.2668 1.78341 10.369 2.09175 10.3435 2.41675C10.3264 2.66675 10.4031 2.91675 10.5393 3.15008C10.9737 3.85841 11.936 4.12508 12.6854 3.72508C13.5286 3.24175 14.5931 3.53341 15.0785 4.35841L15.6491 5.34175C16.1431 6.16675 15.8705 7.22508 15.0189 7.70008C14.295 8.12508 14.0395 9.06675 14.4739 9.78341C14.6101 10.0084 14.7634 10.2001 15.0019 10.3167ZM5.59135 9.00841C5.59135 10.3167 6.67292 11.3584 8.00998 11.3584C9.34704 11.3584 10.4031 10.3167 10.4031 9.00841C10.4031 7.70008 9.34704 6.65008 8.00998 6.65008C6.67292 6.65008 5.59135 7.70008 5.59135 9.00841Z" fill="#7C8DB5" fill-opacity="0.72"/>
</g>
</svg>
