<svg width="20" height="20" viewBox="0 0 20 20" fill="none" xmlns="http://www.w3.org/2000/svg">
<g id="Secondary / Video" clip-path="url(#clip0_73_1351)">
<g id="vuesax/bulk/music-square-add">
<g id="music-square-add">
<path id="Vector" opacity="0.55" d="M14.0083 13.5084C13.1 13.45 12.1667 13.7833 11.475 14.475C10.175 15.775 10.175 17.8834 11.475 19.1917C11.9167 19.6334 12.4583 19.925 13.0333 20.0667C13.35 20.15 13.6833 20.175 14.0167 20.1583C14.8083 20.125 15.5833 19.8084 16.1917 19.2C17.05 18.3417 17.3417 17.1333 17.0667 16.0417C16.9333 15.4667 16.6333 14.925 16.1917 14.4833C15.5917 13.875 14.8083 13.55 14.0083 13.5084ZM15.7 16.8167C15.7 16.9917 15.6333 17.1417 15.5167 17.2584C15.4 17.375 15.25 17.4417 15.075 17.4417H14.4583V18.0917C14.4583 18.2667 14.3917 18.4167 14.275 18.5333C14.1583 18.65 14.0083 18.7167 13.8333 18.7167C13.4917 18.7167 13.2083 18.4334 13.2083 18.0917V17.4417H12.5833C12.2417 17.4417 11.9583 17.1583 11.9583 16.8167C11.9583 16.475 12.2417 16.1917 12.5833 16.1917H13.2083V15.6C13.2083 15.2584 13.4917 14.975 13.8333 14.975C14.175 14.975 14.4583 15.2584 14.4583 15.6V16.1917H15.075C15.425 16.1917 15.7 16.475 15.7 16.8167Z" fill="#7C8DB5" fill-opacity="0.72"/>
<path id="Vector_2" opacity="0.72" d="M11.6166 19.3083C11.3666 19.0916 11.15 18.8333 10.9833 18.55C10.675 18.05 10.5 17.4583 10.5 16.8333C10.5 14.9917 11.9916 13.5 13.8333 13.5C14.8166 13.5 15.7083 13.925 16.3083 14.6083C16.3166 14.6167 16.3166 14.625 16.325 14.625C16.325 14.575 16.3333 14.5333 16.3333 14.4917V7.50833C16.3333 4.475 14.525 2.66667 11.4916 2.66667H4.50829C4.27496 2.66667 4.04996 2.67499 3.83329 2.70832C1.20829 2.94999 -0.333374 4.70833 -0.333374 7.50833V14.4917C-0.333374 17.2917 1.20829 19.05 3.83329 19.2917C4.04996 19.325 4.27496 19.3333 4.50829 19.3333H11.4916C11.5416 19.3333 11.5833 19.325 11.6333 19.325C11.6333 19.3167 11.625 19.3166 11.6166 19.3083Z" fill="#7C8DB5" fill-opacity="0.72"/>
<path id="Vector_3" d="M9.48336 5.41667C9.21669 5.20833 8.73336 5.00834 7.9667 5.21667L5.48336 5.90001C4.74169 6.09168 4.25835 6.71667 4.25835 7.5V8.95833V10.7584C4.06669 10.6917 3.85836 10.6417 3.6417 10.6417C2.60836 10.6417 1.77502 11.4833 1.77502 12.5083C1.77502 13.5333 2.6167 14.375 3.6417 14.375C4.65836 14.375 5.49169 13.55 5.50835 12.5417C5.50835 12.5333 5.5167 12.525 5.5167 12.5167V9.43334L8.82503 8.53333V9.93332C8.63336 9.86665 8.42503 9.81669 8.20003 9.81669C7.1667 9.81669 6.33336 10.6583 6.33336 11.6833C6.33336 12.7167 7.17503 13.55 8.20003 13.55C9.2167 13.55 10.05 12.725 10.0667 11.7083C10.0667 11.7 10.075 11.6917 10.075 11.675V7.70833V6.81666C10.0667 6.18333 9.86669 5.70833 9.48336 5.41667ZM3.63335 13.125C3.29169 13.125 3.0167 12.85 3.0167 12.5083C3.0167 12.1667 3.29169 11.8917 3.63335 11.8917C3.97502 11.8917 4.25003 12.1667 4.25003 12.5083C4.25003 12.85 3.97502 13.125 3.63335 13.125ZM8.19169 12.2917C7.85002 12.2917 7.57503 12.0167 7.57503 11.675C7.57503 11.3333 7.85002 11.0583 8.19169 11.0583C8.53336 11.0583 8.80836 11.3333 8.80836 11.675C8.80836 12.0167 8.53336 12.2917 8.19169 12.2917Z" fill="white"/>
</g>
</g>
</g>
<defs>
<clipPath id="clip0_73_1351">
<rect width="20" height="20" fill="white"/>
</clipPath>
</defs>
</svg>
